<svg width="12" height="21" viewBox="0 0 12 21" fill="none" xmlns="http://www.w3.org/2000/svg">
<path d="M9.60938 20.4961C9.86719 20.7539 10.1953 20.8945 10.582 20.8945C11.3555 20.8945 11.9766 20.2852 11.9766 19.5117C11.9766 19.125 11.8125 18.7734 11.543 18.5039L3.33984 10.4883L11.543 2.49609C11.8125 2.22656 11.9766 1.86328 11.9766 1.48828C11.9766 0.714844 11.3555 0.105469 10.582 0.105469C10.1953 0.105469 9.86719 0.246094 9.60938 0.503906L0.492188 9.41016C0.164062 9.71484 0.0117188 10.0898 0 10.5C0 10.9102 0.164062 11.2617 0.492188 11.5781L9.60938 20.4961Z" fill="#5D4DBE"/>
</svg>
