<svg width="132" height="132" viewBox="0 0 132 132" fill="none" xmlns="http://www.w3.org/2000/svg">
<g filter="url(#filter0_f_386_3706)">
<path d="M66 2.5C74.3389 2.5 82.5962 4.14248 90.3004 7.33365C98.0046 10.5248 105.005 15.2022 110.901 21.0987C116.798 26.9952 121.475 33.9954 124.666 41.6996C127.858 49.4038 129.5 57.6611 129.5 66C129.5 74.339 127.858 82.5962 124.666 90.3004C121.475 98.0046 116.798 105.005 110.901 110.901C105.005 116.798 98.0046 121.475 90.3004 124.666C82.5962 127.858 74.3389 129.5 66 129.5C57.661 129.5 49.4038 127.858 41.6996 124.666C33.9954 121.475 26.9952 116.798 21.0987 110.901C15.2022 105.005 10.5248 98.0045 7.33364 90.3004C4.14247 82.5962 2.5 74.3389 2.5 66C2.5 57.661 4.14248 49.4037 7.33366 41.6996C10.5248 33.9954 15.2022 26.9952 21.0987 21.0987C26.9953 15.2022 33.9955 10.5248 41.6996 7.33363C49.4038 4.14247 57.6611 2.49999 66 2.5L66 2.5Z" stroke="#34C759" stroke-width="3" stroke-linecap="round" stroke-linejoin="round"/>
</g>
<line x1="66.5" y1="46" x2="66.5" y2="86" stroke="#34C759"/>
<line x1="46" y1="65.5" x2="86" y2="65.5" stroke="#34C759"/>
<defs>
<filter id="filter0_f_386_3706" x="0.5" y="0.5" width="131" height="131" filterUnits="userSpaceOnUse" color-interpolation-filters="sRGB">
<feFlood flood-opacity="0" result="BackgroundImageFix"/>
<feBlend mode="normal" in="SourceGraphic" in2="BackgroundImageFix" result="shape"/>
<feGaussianBlur stdDeviation="0.25" result="effect1_foregroundBlur_386_3706"/>
</filter>
</defs>
</svg>
