<?xml version="1.0" encoding="utf-8" standalone="yes"?>
<!DOCTYPE svg PUBLIC "-//W3C//DTD SVG 1.1//EN" "http://www.w3.org/Graphics/SVG/1.1/DTD/svg11.dtd">
<svg xmlns="http://www.w3.org/2000/svg" xmlns:xlink="http://www.w3.org/1999/xlink" xmlns:dc="http://purl.org/dc/elements/1.1/" xmlns:cc="http://web.resource.org/cc/" xmlns:rdf="http://www.w3.org/1999/02/22-rdf-syntax-ns#" xmlns:sodipodi="http://sodipodi.sourceforge.net/DTD/sodipodi-0.dtd" xmlns:inkscape="http://www.inkscape.org/namespaces/inkscape" version="1.1" baseProfile="full" width="202px" height="202px" viewBox="0 0 202 202" preserveAspectRatio="xMidYMid meet" id="svg_document" style="zoom: 1;"><!-- Created with macSVG - https://macsvg.org/ - https://github.com/dsward2/macsvg/ --><title id="svg_document_title">Untitled.svg</title><defs id="svg_document_defs"></defs><g id="main_group"></g><svg width="202" height="202" viewBox="0 0 202 202" fill="none" id="svg1"><path d="M0 52.004L20.1403 70.3407V150H0V52.004Z" fill="white" id="path1"></path><path d="M20.1403 70.3407H40.5391L98.5972 150H74.9175L20.1403 70.3407Z" fill="white" id="path1"></path><rect width="48.6974" height="20.1403" fill="white" id="rect1"></rect><path d="M48.6974 70.3407C58.0251 70.3407 66.9708 66.6352 73.5666 60.0395C80.1623 53.4438 83.8677 44.4981 83.8677 35.1703C83.8677 25.8426 80.1623 16.8969 73.5666 10.3012C66.9709 3.70544 58.0251 1.81618e-06 48.6974 0L48.6974 20.1629C52.6776 20.1629 56.4948 21.744 59.3093 24.5584C62.1237 27.3729 63.7049 31.1901 63.7049 35.1703C63.7049 39.1506 62.1237 42.9678 59.3093 45.7822C56.4948 48.5967 52.6776 50.1778 48.6974 50.1778L48.6974 70.3407Z" fill="white" id="path1"></path><path d="M21.0421 50.2004H48.6974V70.3407H40.5812L21.0421 50.2004Z" fill="white" id="path1"></path><rect x="118" width="84" height="20" fill="white" id="rect1"></rect><rect x="118" y="65" width="84" height="20" fill="white" id="rect1"></rect><rect x="118" y="130" width="84" height="20" fill="white" id="rect1"></rect><path d="M37.4258 183.973C37.6016 189.266 41.918 192.488 48.6953 192.488C55.6875 192.488 60.1211 189.031 60.1211 183.562C60.1211 179.266 57.6602 176.844 52.0156 175.633L48.5977 174.91C45.3555 174.168 43.9883 173.191 43.9883 171.453C43.9883 169.363 45.9414 167.977 48.8516 167.977C51.8008 167.977 53.8906 169.422 54.0859 171.805H59.6133C59.5156 166.707 55.3945 163.328 48.832 163.328C42.543 163.328 38.0508 166.766 38.0508 171.961C38.0508 176.082 40.6094 178.719 45.8047 179.832L49.4766 180.633C52.875 181.395 54.2227 182.41 54.2227 184.246C54.2227 186.316 52.0742 187.82 48.9297 187.82C45.8047 187.82 43.3828 186.297 43.1094 183.973H37.4258ZM88.2461 192V163.816H82.3477V175.262H69.6523V163.816H63.7539V192H69.6523V180.125H82.3477V192H88.2461ZM111.391 192H117.66L107.855 163.816H100.922L91.1367 192H97.1914L99.3398 185.164H109.242L111.391 192ZM104.223 169.207H104.359L107.973 180.75H100.609L104.223 169.207ZM120.551 163.816V192H126.449V183.113H131.723C137.66 183.113 141.781 179.246 141.781 173.465C141.781 167.664 137.797 163.816 132.016 163.816H120.551ZM126.449 168.484H130.453C133.832 168.484 135.785 170.281 135.785 173.484C135.785 176.707 133.812 178.504 130.434 178.504H126.449V168.484ZM163.949 187.117H151.176V180.008H163.227V175.477H151.176V168.68H163.949V163.816H145.277V192H163.949V187.117Z" fill="#34C759" id="path1"></path></svg></svg>