<svg width="226" height="54" viewBox="0 0 226 54" fill="none" xmlns="http://www.w3.org/2000/svg">
<path d="M5.38672 5.41211H15.2598C20.709 5.41211 23.9902 8.42969 23.9902 13.498C23.9902 18.6836 20.9141 21.6133 15.4941 21.6133H5.38672V5.41211ZM5.38672 26.2715H15.4941L24.5469 43H30.7285L20.9434 25.4512C26.2461 23.7812 29.4395 19.2109 29.4395 13.3223C29.4395 5.70508 24.1074 0.724609 15.9629 0.724609H0.113281V43H5.38672V26.2715ZM62.2812 38.2539H41.3633V23.7227H61.1973V19.0352H41.3633V5.4707H62.2812V0.724609H36.0898V43H62.2812V38.2539Z" fill="#36D65E"/>
<path d="M67.2324 31.3691C67.7305 38.8398 73.9414 43.7031 82.9062 43.7031C92.6328 43.7031 98.7266 38.8691 98.7266 31.1348C98.7266 25.0703 95.1816 21.7012 86.4219 19.5039L81.998 18.332C76.2559 16.8379 73.9121 14.9336 73.9121 11.7402C73.9121 7.60938 77.7207 4.76758 83.1992 4.76758C88.707 4.76758 92.3691 7.55078 92.8379 12.0918H98.1113C97.877 5.00195 91.7832 0.0214844 83.375 0.0214844C74.5859 0.0214844 68.4336 4.94336 68.4336 11.9746C68.4336 17.7168 71.8906 21.1445 79.6836 23.1367L85.1035 24.543C90.7871 26.0078 93.2773 28.2051 93.2773 31.7793C93.2773 35.9395 89.1172 38.957 83.4043 38.957C77.3691 38.957 73.0332 35.9395 72.5352 31.3691H67.2324ZM104.352 43H109.449V25.2461C109.449 19.9727 112.584 16.5156 117.652 16.5156C122.428 16.5156 124.859 19.416 124.859 24.25V43H129.957V23.3125C129.957 16.5156 125.914 12.0039 119.234 12.0039C114.605 12.0039 111.266 13.9961 109.566 17.3945H109.449V0.724609H104.352V43ZM146.48 39.1914C142.818 39.1914 140.387 37.2871 140.387 34.3867C140.387 31.5156 142.73 29.6992 146.832 29.4355L154.977 28.9375V31.4277C154.977 35.8223 151.285 39.1914 146.48 39.1914ZM145.338 43.5273C149.439 43.5273 153.307 41.2422 155.123 37.7559H155.24V43H160.074V21.9355C160.074 15.8711 155.562 12.0039 148.414 12.0039C141.207 12.0039 136.695 16.0469 136.344 21.3203H141.266C141.91 18.332 144.371 16.4863 148.297 16.4863C152.516 16.4863 154.977 18.7129 154.977 22.4336V24.9824L146.246 25.4805C139.215 25.8906 135.201 29.1719 135.201 34.3867C135.201 39.8652 139.273 43.5273 145.338 43.5273ZM181.344 12.0039C176.92 12.0039 173.375 14.2598 171.5 17.6875H171.383V12.5312H166.549V53.166H171.646V38.0488H171.764C173.58 41.3887 177.096 43.5273 181.461 43.5273C189.137 43.5273 194.381 37.3164 194.381 27.7656C194.381 18.2148 189.107 12.0039 181.344 12.0039ZM180.348 39.0449C175.133 39.0449 171.617 34.5625 171.617 27.7656C171.617 20.998 175.133 16.4863 180.348 16.4863C185.768 16.4863 189.166 20.8809 189.166 27.7656C189.166 34.6797 185.768 39.0449 180.348 39.0449ZM211.754 16.4277C216.559 16.4277 219.752 20.0605 219.869 25.1582H203.316C203.639 20.0898 206.979 16.4277 211.754 16.4277ZM219.752 34.2695C218.902 37.1406 216.061 39.1035 212.193 39.1035C206.715 39.1035 203.287 35.2656 203.287 29.4355V29.1426H225.143V27.209C225.143 17.9805 220.074 12.0039 211.842 12.0039C203.434 12.0039 198.043 18.4199 198.043 27.8828C198.043 37.4629 203.346 43.5273 212.076 43.5273C218.727 43.5273 223.883 39.6016 224.762 34.2695H219.752Z" fill="#5D4DBE"/>
</svg>
