<svg width="24" height="24" viewBox="0 0 24 24" fill="none" xmlns="http://www.w3.org/2000/svg">
<path d="M20.5781 7.79543C19.703 6.26871 18.3534 5.41371 16.567 5.2534C15.6211 5.16902 14.7389 5.41137 13.8844 5.64621C13.2211 5.82855 12.5944 6.00058 12 6.00058C11.4056 6.00058 10.7812 5.82808 10.1222 5.64574C9.26531 5.41136 8.37937 5.1648 7.43016 5.25386C5.72437 5.41371 4.35937 6.29027 3.47812 7.78886C2.66344 9.17683 2.25 11.0987 2.25 13.5006C2.25 15.3943 2.95312 17.7423 4.125 19.7818C4.72594 20.8248 6.32812 23.2506 8.21062 23.2506C9.65297 23.2506 10.4208 22.8081 10.9814 22.4851C11.3705 22.2611 11.6053 22.1256 11.9981 22.1256C12.3909 22.1256 12.6258 22.2611 13.0148 22.4851C13.5773 22.8081 14.3437 23.2506 15.7875 23.2506C17.6705 23.2506 19.2722 20.8243 19.8731 19.7818C21.0483 17.7428 21.7481 15.3948 21.7481 13.5006C21.75 11.0364 21.3666 9.17027 20.5781 7.79543ZM10.125 16.5006C9.50391 16.5006 9 15.4932 9 14.2506C9 13.0079 9.50391 12.0006 10.125 12.0006C10.7461 12.0006 11.25 13.0079 11.25 14.2506C11.25 15.4932 10.7461 16.5006 10.125 16.5006ZM13.875 16.5006C13.2539 16.5006 12.75 15.4932 12.75 14.2506C12.75 13.0079 13.2539 12.0006 13.875 12.0006C14.4961 12.0006 15 13.0079 15 14.2506C15 15.4932 14.4961 16.5006 13.875 16.5006Z" fill="black"/>
<path d="M12.4266 5.24695C13.0435 5.16492 14.2013 4.87992 15.1842 3.89742C15.9174 3.16247 16.3801 2.20085 16.4967 1.16929C16.5034 1.11423 16.4978 1.05838 16.4803 1.00575C16.4628 0.953127 16.4338 0.90504 16.3955 0.864958C16.3571 0.824875 16.3104 0.793795 16.2586 0.773956C16.2068 0.754117 16.1513 0.746014 16.096 0.750231C15.5002 0.794762 14.3728 1.02539 13.343 2.0557C12.5863 2.79929 12.1116 3.78273 12 4.83773C11.9942 4.89442 12.0014 4.95168 12.0211 5.00516C12.0408 5.05865 12.0724 5.10695 12.1135 5.1464C12.1546 5.18584 12.2042 5.2154 12.2584 5.23283C12.3127 5.25025 12.3702 5.25508 12.4266 5.24695Z" fill="black"/>
</svg>
