<svg width="100" height="100" viewBox="0 0 100 100" fill="none" xmlns="http://www.w3.org/2000/svg">
<path d="M96.875 67.8145C94.7141 67.6561 92.5712 67.309 90.4707 66.7773C85.1426 65.4824 79.7598 62.0391 77.166 56.5371C75.8184 53.6797 76.6504 52.9063 79.4824 51.8496C82.252 50.8203 85.3027 50.3418 86.6816 47.3574C87.832 44.8652 86.9023 41.9355 84.6484 40.4258C81.5801 38.3691 78.7207 40.3848 75.543 40.8301C76.2715 31.7168 77.2344 23.5312 71.1152 15.8828C66.043 9.54297 58.0742 6.25 50.0566 6.25C42.0391 6.25 34.0684 9.54297 29 15.8848C22.8711 23.5527 23.8437 31.7402 24.5723 40.8691C21.3848 40.4297 18.5547 38.3711 15.4648 40.4434C12.5898 42.3672 12.1445 46.2559 14.4023 48.8418C16.6602 51.4277 20.582 50.6973 22.8887 52.8652C24.1563 54.0547 23.5703 55.3281 22.8203 56.7988C19.9922 62.3457 15.1523 65.7324 9.17969 66.8691C8.39844 67.0176 4.82227 67.4297 3.125 67.582C3.125 69.3945 3.22656 70.8594 3.44336 71.8262C4.01758 74.377 5.84961 76.4316 8.07031 77.7051C10.2539 78.9551 15 78.9609 16.2109 80.7344C16.7969 81.6094 16.5547 83.1328 17.252 84.1289C17.9608 85.1363 19.0405 85.8213 20.2539 86.0332C23.8887 86.7383 27.543 84.627 31.2734 85.623C34.1738 86.3945 36.4531 88.7227 38.9414 90.3105C41.9707 92.2344 45.2578 93.5176 48.8691 93.7266C56.3105 94.1582 60.5742 90.0332 66.5605 86.6133C70.3691 84.4375 74.0117 85.8594 78.0605 86.0898C81.9863 86.3145 82.6563 84.2832 83.8457 81.2305C83.9752 80.9247 84.0759 80.6076 84.1465 80.2832C84.3067 80.2071 84.4564 80.1106 84.5918 79.9961C84.9824 79.6895 86.6523 79.5391 87.084 79.4375C89.0918 78.9609 91.0566 78.4316 92.7813 77.25C94.9902 75.7344 96.2285 73.6367 96.6055 70.875C96.7809 69.8642 96.8711 68.8404 96.875 67.8145V67.8145ZM40.625 25C42.3516 25 43.75 27.0977 43.75 29.6875C43.75 32.2773 42.3516 34.375 40.625 34.375C38.8984 34.375 37.5 32.2773 37.5 29.6875C37.5 27.0977 38.8984 25 40.625 25ZM60.8633 40.1758C57.8848 43.1055 54.0273 44.7266 50 44.7266C47.9766 44.723 45.974 44.3182 44.108 43.5358C42.242 42.7533 40.5497 41.6086 39.1289 40.168C38.8357 39.8748 38.671 39.4771 38.671 39.0625C38.671 38.6479 38.8357 38.2502 39.1289 37.957C39.4221 37.6638 39.8197 37.4991 40.2344 37.4991C40.649 37.4991 41.0467 37.6638 41.3398 37.957C42.4708 39.1068 43.8185 40.0209 45.305 40.6465C46.7915 41.2721 48.3872 41.5967 50 41.6016C53.2012 41.6016 56.2793 40.3047 58.6699 37.9492C58.9652 37.6584 59.3639 37.4967 59.7783 37.4998C60.1928 37.5029 60.589 37.6706 60.8799 37.9658C61.1707 38.2611 61.3324 38.6598 61.3293 39.0742C61.3262 39.4887 61.1585 39.8849 60.8633 40.1758V40.1758ZM59.375 34.375C57.6484 34.375 56.25 32.2754 56.25 29.6875C56.25 27.0996 57.6484 25 59.375 25C61.1016 25 62.5 27.0996 62.5 29.6875C62.5 32.2754 61.1016 34.375 59.375 34.375Z" fill="white"/>
</svg>
