<svg width="24" height="24" viewBox="0 0 24 24" fill="none" xmlns="http://www.w3.org/2000/svg">
<path d="M12.1359 2.25017C6.65243 2.17611 2.17587 6.65267 2.24993 12.1361C2.32305 17.395 6.60509 21.677 11.864 21.7502C17.3484 21.8252 21.824 17.3486 21.749 11.8652C21.6768 6.60533 17.3948 2.3233 12.1359 2.25017ZM18.0618 17.59C18.0431 17.6102 18.0202 17.626 17.9948 17.6364C17.9693 17.6468 17.9418 17.6514 17.9144 17.65C17.8869 17.6485 17.8601 17.6411 17.8358 17.6281C17.8116 17.6152 17.7905 17.597 17.774 17.575C17.3547 17.0265 16.8413 16.5568 16.2576 16.188C15.0641 15.422 13.552 15.0002 11.9999 15.0002C10.4479 15.0002 8.93571 15.422 7.74227 16.188C7.15862 16.5566 6.64516 17.0261 6.22587 17.5745C6.20939 17.5966 6.18828 17.6147 6.16402 17.6277C6.13976 17.6406 6.11294 17.6481 6.08548 17.6495C6.05801 17.6509 6.03057 17.6463 6.00509 17.6359C5.97961 17.6256 5.95673 17.6097 5.93805 17.5895C4.56259 16.1047 3.78344 14.1645 3.74993 12.1408C3.67352 7.57939 7.41649 3.76142 11.9798 3.75017C16.5431 3.73892 20.2499 7.44439 20.2499 12.0002C20.2515 14.0727 19.4699 16.0693 18.0618 17.59Z" fill="#242424"/>
<path d="M12 6.75C11.0756 6.75 10.2398 7.09641 9.6459 7.72594C9.05199 8.35547 8.75527 9.22594 8.82231 10.1602C8.95824 12 10.3837 13.5 12 13.5C13.6162 13.5 15.0389 12 15.1776 10.1606C15.247 9.23531 14.9526 8.37281 14.3489 7.73156C13.7526 7.09875 12.9182 6.75 12 6.75Z" fill="#242424"/>
</svg>
