<svg width="36" height="36" viewBox="0 0 36 36" fill="none" xmlns="http://www.w3.org/2000/svg">
<path d="M9.76562 24.7886C9.38379 25.1704 9.36719 25.8511 9.77393 26.2495C10.1807 26.6396 10.8447 26.6396 11.2349 26.2495L18 19.4844L24.7568 26.2495C25.1553 26.6396 25.8193 26.6479 26.2178 26.2412C26.6162 25.8428 26.6162 25.1787 26.2261 24.7886L19.4609 18.0234L26.2261 11.2583C26.6162 10.8682 26.6245 10.1958 26.2178 9.80566C25.811 9.40723 25.1553 9.40723 24.7568 9.79736L18 16.5625L11.2349 9.79736C10.8447 9.40723 10.1724 9.39893 9.77393 9.79736C9.37549 10.2041 9.38379 10.8765 9.76562 11.2583L16.5308 18.0234L9.76562 24.7886Z" fill="#5D4DBE"/>
</svg>
